<?xml version="1.0" encoding="utf-8"?><!-- Uploaded to: SVG Repo, www.svgrepo.com, Generator: SVG Repo Mixer Tools -->
<svg fill="#000000" width="800px" height="800px" viewBox="0 0 24 24" id="autumn" data-name="Flat Color" xmlns="http://www.w3.org/2000/svg" class="icon flat-color"><path id="primary" d="M18.53,13A8.55,8.55,0,0,0,21,7.59a1,1,0,0,0-.41-.84,5,5,0,0,0-4.82-.24,6.83,6.83,0,0,0-3.35-4.42,1,1,0,0,0-.84,0A6.83,6.83,0,0,0,8.23,6.51a5,5,0,0,0-4.82.24A1,1,0,0,0,3,7.59,8.55,8.55,0,0,0,5.47,13,5.94,5.94,0,0,0,4,15.76a1,1,0,0,0,.26,1c1.78,1.77,4.57,2.13,7.71,1a10.25,10.25,0,0,0,3.42.65,5.92,5.92,0,0,0,4.29-1.65,1,1,0,0,0,.26-1A5.94,5.94,0,0,0,18.53,13Z" style="fill: rgb(0, 0, 0);"></path><path id="secondary" d="M12,22a1,1,0,0,1-1-1V12a1,1,0,0,1,2,0v9A1,1,0,0,1,12,22Z" style="fill: rgb(44, 169, 188);"></path></svg>