<?xml version="1.0" ?><!-- Uploaded to: SVG Repo, www.svgrepo.com, Generator: SVG Repo Mixer Tools -->
<svg width="800px" height="800px" viewBox="0 0 32 32" id="OBJECT" xmlns="http://www.w3.org/2000/svg"><defs><style>.cls-1{fill:#b2b2b2;}</style></defs><title/><path d="M23.85,15.47A1,1,0,0,0,23,15H9a1,1,0,0,0-.89,1.45L12,24.24V28a3,3,0,0,0,3,3h2a3,3,0,0,0,3-3V24.24l3.89-7.79A1,1,0,0,0,23.85,15.47Z"/><path class="cls-1" d="M27,9.33A5,5,0,0,0,22.33,5,7,7,0,0,0,9.67,5,5,5,0,0,0,5,9.33,6,6,0,0,0,7,21a6.14,6.14,0,0,0,2.63-.6,5,5,0,0,0,4.37.18,5.05,5.05,0,0,0,4,0,5,5,0,0,0,4.37-.18A6.14,6.14,0,0,0,25,21,6,6,0,0,0,27,9.33Z"/><path d="M19.67,8a1,1,0,0,0,2,0,2.09,2.09,0,0,1,.95-1.75l.6-.4a.94.94,0,0,0,.4-.56A5,5,0,0,0,22.33,5a6.72,6.72,0,0,0-.4-.7l-.41.27A4.08,4.08,0,0,0,19.67,8Z"/><path d="M8.78,5.85l.6.4A2.09,2.09,0,0,1,10.33,8a1,1,0,0,0,2,0,4.09,4.09,0,0,0-1.84-3.42l-.42-.27a6.72,6.72,0,0,0-.4.7,5,5,0,0,0-1.29.28A.94.94,0,0,0,8.78,5.85Z"/></svg>