<?xml version="1.0" encoding="utf-8"?><!-- Uploaded to: SVG Repo, www.svgrepo.com, Generator: SVG Repo Mixer Tools -->
<svg fill="#000000" width="800px" height="800px" viewBox="0 0 24 24" id="celsius-square" data-name="Flat Color" xmlns="http://www.w3.org/2000/svg" class="icon flat-color"><rect id="primary" x="2" y="2" width="20" height="20" rx="2" style="fill: rgb(0, 0, 0);"></rect><path id="secondary" d="M14.71,18a5,5,0,1,1,2.86-9.1,1,1,0,1,1-1.14,1.64A3,3,0,0,0,14.71,10a3,3,0,0,0,0,6,3,3,0,0,0,1.72-.54,1,1,0,1,1,1.14,1.64A5,5,0,0,1,14.71,18ZM7.5,6A1.5,1.5,0,1,0,9,7.5,1.5,1.5,0,0,0,7.5,6Z" style="fill: rgb(44, 169, 188);"></path></svg>