<?xml version="1.0" encoding="utf-8"?><!-- Uploaded to: SVG Repo, www.svgrepo.com, Generator: SVG Repo Mixer Tools -->
<svg fill="#000000" width="800px" height="800px" viewBox="0 0 24 24" id="chat-3" data-name="Flat Color" xmlns="http://www.w3.org/2000/svg" class="icon flat-color"><path id="primary" d="M4,3H16a2,2,0,0,1,2,2V15a2,2,0,0,1-2,2H14v2a1,1,0,0,1-.51.87A1,1,0,0,1,13,20a1,1,0,0,1-.51-.14L7.72,17H4a2,2,0,0,1-2-2V5A2,2,0,0,1,4,3Z" style="fill: rgb(0, 0, 0);"></path><path id="secondary" d="M16,20a1,1,0,0,1,1-1h3V8a1,1,0,0,1,2,0V19a2,2,0,0,1-2,2H17A1,1,0,0,1,16,20ZM11,10a1.5,1.5,0,1,0,1.5-1.5A1.5,1.5,0,0,0,11,10ZM6,10A1.5,1.5,0,1,0,7.5,8.5,1.5,1.5,0,0,0,6,10Z" style="fill: rgb(44, 169, 188);"></path></svg>