<?xml version="1.0" encoding="utf-8"?><!-- Uploaded to: SVG Repo, www.svgrepo.com, Generator: SVG Repo Mixer Tools -->
<svg fill="#000000" width="800px" height="800px" viewBox="0 0 24 24" id="gift" data-name="Flat Color" xmlns="http://www.w3.org/2000/svg" class="icon flat-color"><path id="primary" d="M20,6H4A2,2,0,0,0,2,8v2a2,2,0,0,0,1,1.72V18a2,2,0,0,0,2,2H19a2,2,0,0,0,2-2V11.72A2,2,0,0,0,22,10V8A2,2,0,0,0,20,6Z" style="fill: rgb(0, 0, 0);"></path><path id="secondary" d="M16,2a5.92,5.92,0,0,0-4,2.23A5.92,5.92,0,0,0,8,2,1,1,0,0,0,8,4a4.45,4.45,0,0,1,3,2.27V20h2V6.27A4.45,4.45,0,0,1,16,4a1,1,0,0,0,0-2Z" style="fill: rgb(44, 169, 188);"></path></svg>