<?xml version="1.0" encoding="utf-8"?><!-- Uploaded to: SVG Repo, www.svgrepo.com, Generator: SVG Repo Mixer Tools -->
<svg fill="#000000" width="800px" height="800px" viewBox="0 0 24 24" id="greenhouse" data-name="Flat Color" xmlns="http://www.w3.org/2000/svg" class="icon flat-color"><path id="primary" d="M12,2a8,8,0,0,0-8,8V21a1,1,0,0,0,1,1H19a1,1,0,0,0,1-1V10A8,8,0,0,0,12,2Z" style="fill: rgb(0, 0, 0);"></path><path id="secondary" d="M9,9a1,1,0,0,1,1-1h4a1,1,0,0,1,0,2H10A1,1,0,0,1,9,9Zm5,5H10a1,1,0,0,0-1,1v6a1,1,0,0,0,1,1h4a1,1,0,0,0,1-1V15A1,1,0,0,0,14,14Z" style="fill: rgb(44, 169, 188);"></path><path id="primary-2" data-name="primary" d="M21,22H3a1,1,0,0,1,0-2H21a1,1,0,0,1,0,2Z" style="fill: rgb(0, 0, 0);"></path></svg>