<?xml version="1.0" encoding="utf-8"?><!-- Uploaded to: SVG Repo, www.svgrepo.com, Generator: SVG Repo Mixer Tools -->
<svg fill="#000000" width="800px" height="800px" viewBox="0 0 24 24" id="sailboat-2" data-name="Flat Color" xmlns="http://www.w3.org/2000/svg" class="icon flat-color"><path id="secondary" d="M18.37,7.56,12.68,2.27a1,1,0,0,0-1.08-.19A1,1,0,0,0,11,3V14a1,1,0,0,0,2,0V11h3.92a2.07,2.07,0,0,0,1.94-1.29A2,2,0,0,0,18.37,7.56Z" style="fill: rgb(44, 169, 188);"></path><path id="primary" d="M20,13H4a2,2,0,0,0-2,2,6,6,0,0,0,6,6h8a6,6,0,0,0,6-6A2,2,0,0,0,20,13Z" style="fill: rgb(0, 0, 0);"></path></svg>