<?xml version="1.0" encoding="utf-8"?><!-- Uploaded to: SVG Repo, www.svgrepo.com, Generator: SVG Repo Mixer Tools -->
<svg fill="#000000" width="800px" height="800px" viewBox="0 0 24 24" id="waze" data-name="Flat Color" xmlns="http://www.w3.org/2000/svg" class="icon flat-color"><path id="primary" d="M13.38,2C7.19,2,5,6.57,5,10.49v.12a1.43,1.43,0,0,1-.41,1.05A1.47,1.47,0,0,1,3.27,12a1,1,0,0,0-.87.16A1,1,0,0,0,2,13a7.86,7.86,0,0,0,4.16,5.4,11.23,11.23,0,0,0,1.69.78c.7.22,1.85.48,1.93.5A18.49,18.49,0,0,0,13.3,20c.24,0,.46,0,.69,0a9.49,9.49,0,0,0,2.15-.38,6.5,6.5,0,0,0,2.1-1.19A9.06,9.06,0,0,0,22,11C22,5.78,18.37,2,13.38,2Z" style="fill: rgb(0, 0, 0);"></path><path id="secondary" d="M19,19a3,3,0,1,1-3-3A3,3,0,0,1,19,19ZM8,16a3,3,0,1,0,3,3A3,3,0,0,0,8,16Zm8-8.5A1.5,1.5,0,1,0,17.5,9,1.5,1.5,0,0,0,16,7.5Zm-5,0A1.5,1.5,0,1,0,12.5,9,1.5,1.5,0,0,0,11,7.5Z" style="fill: rgb(44, 169, 188);"></path></svg>